<?xml version="1.0" standalone="no"?>
<!DOCTYPE svg PUBLIC "-//W3C//DTD SVG 20010904//EN"
 "http://www.w3.org/TR/2001/REC-SVG-20010904/DTD/svg10.dtd">
<svg version="1.0" xmlns="http://www.w3.org/2000/svg"
 width="300.000000pt" height="346.000000pt" viewBox="0 0 300.000000 346.000000"
 preserveAspectRatio="xMidYMid meet">
<metadata>
Created by potrace 1.10, written by Peter Selinger 2001-2011
</metadata>
<!--
    #EACA45 lemon yellow (seed / lines )
    0EAAD0 light blue parrot hair
    #154660 dark blue parrot hair -->
<g transform="translate(0.000000,346.000000) scale(0.100000,-0.100000)">
<path d="M1285 3369 c-241 -30 -437 -104 -650 -246 -83 -56 -84 -56 -65 -77
46 -51 193 -228 247 -295 105 -131 95 -124 167 -115 79 10 283 10 366 0 88
-10 287 -76 361 -120 34 -20 64 -36 67 -36 16 0 160 -119 210 -173 96 -104
178 -248 204 -361 l14 -58 340 4 341 3 -3 75 c-8 191 -44 346 -120 520 -165
378 -469 665 -852 801 -198 71 -443 101 -627 78z" fill="#154660"/>
<path d="m407 -53 c47 -10 93 -22 102
-27 9 -4 31 -11 48 -14 35 -6 227 -82 250 -99 15 -11 48 -31 85 -50 52 -28
236 -182 294 -246 96 -106 270 -370 245 -370 -4 0 0 -8 9 -17 20 -23 95 -252
102 -312 3 -25 8 -55 10 -66 10 -53 16 -173 8 -178 -14 -9 -398 -11 -411 -3
-9 5 -29 59 -47 126 -11 39 -100 214 -137 268 -101 150 -253 293 -400 377 -37
21 -65 42 -63 45 2 4 -1 7 -8 8 -25 1 -56 11 -87 27 -18 9 -39 18 -48 20 -10
2 -53 14 -97 26 -72 21 -100 24 -280 23 -175 0 -210 -3 -280 -22 -44 -12 -88
-27 -97 -32 -22 -12 -68 -13 -68 -1 0 5 -12 22 -27 38 -16 17 -50 56 -78 89
-27 32 -60 69 -72 83 -39 41 -30 61 50 113 67 44 187 107 211 113 6 1 25 8 41
14 87 37 196 67 274 75 24 3 46 7 48 10 12 12 344 -2 423 -18z" fill='#154660'/>
<path d="M1685 3320 m-165 -501
c345 -88 627 -317 789 -640 33 -66 77 -181 89 -234 l7 -26 -73 4 c-80 6 -82
15 -126 54 -13 42 -44 116 -85 197 -24 48 -158 206 -201 237 -15 11 -38 30 -51
43 -13 12 -27 22 -33 22 -5 0 -16 6 -24 14 -35 35 -244 145 -332 140 -32 3
-91 17 -100 23 -26 15 -300 21 -380 9 -47 -7 -78 6 -96 38 -6 13 -21 26 -31
30 -32 10 -15 28 48 51 147 69 300 79 619 28z" fill="#0EAAD0"/>
<path d="M439 2573 c-147 -154 -226 -296 -284 -514 -25 -92 -28 -121 -29 -254
0 -164 5 -203 35 -315 37 -133 92 -254 156 -347 24 -34 43 -66 43 -72 0 -18
13 -13 70 31 30 23 111 82 180 132 69 49 130 95 136 100 6 6 37 29 69 51 32
22 72 52 90 68 18 15 38 27 44 27 6 0 11 3 11 8 0 4 25 23 55 42 30 19 55 37
55 40 0 3 -9 19 -20 35 -43 65 -8 205 55 221 31 8 31 15 4 40 -12 10 -35 39
-52 64 -17 25 -34 47 -37 50 -4 3 -34 43 -69 90 -34 47 -68 92 -75 101 -7 8
-32 42 -56 75 -24 32 -75 102 -114 154 -39 53 -96 130 -126 172 -30 42 -58 77
-61 77 -3 1 -39 -34 -80 -76z m161 -75 c0 -4 28 -43 63 -88 34 -45 76 -100 92
-123 17 -23 94 -127 173 -231 78 -105 142 -196 142 -204 0 -7 -15 -31 -32 -54
-29 -36 -33 -47 -33 -102 1 -33 4 -75 9 -93 8 -31 6 -32 -79 -95 -49 -34 -138
-100 -199 -145 -61 -45 -140 -103 -176 -129 -36 -26 -88 -65 -116 -86 -49 -37
-74 -47 -74 -30 0 5 -8 17 -18 28 -50 56 -112 196 -170 384 -20 63 -27 143
-26 280 2 150 26 270 83 409 30 74 98 193 113 199 4 2 8 9 8 16 0 7 34 48 75
92 l76 79 44 -50 c25 -27 45 -53 45 -57z" fill="#EACA45"/>
<path d="M796 2140 c14 -24 126 -170 131 -170 2 0 -13 24 -34 53 -42 59 -110
141 -97 117z" fill="gold"/>
<path d="M722 2058 c-15 -15 -16 -48 -2 -48 6 0 10 9 10 20 0 29 34 26 54 -5
9 -14 14 -25 10 -25 -4 0 0 -7 7 -16 12 -15 11 -16 -6 -11 -11 3 -31 8 -45 11
l-25 6 25 -12 c100 -47 103 -48 88 -30 -8 9 -25 37 -37 62 -31 60 -53 74 -79
48z" fill="gold"/>
<path d="M460 1956 c25 -13 56 -26 70 -30 14 -3 -2 7 -35 24 -71 34 -100 40
-35 6z" fill="gold"/>
<path d="M560 1915 c0 -8 152 -76 158 -70 3 2 -6 9 -19 14 -13 5 -50 21 -81
35 -32 14 -58 23 -58 21z" fill="gold"/>
<path d="M770 1855 c0 -2 18 -14 40 -25 24 -12 37 -25 34 -33 -3 -8 7 -18 23
-25 l28 -12 -24 20 c-25 21 -13 27 21 9 11 -6 22 -9 24 -6 4 4 -129 77 -141
77 -3 0 -5 -2 -5 -5z" fill="gold"/>
<path d="M730 1835 c0 -8 92 -47 97 -42 4 4 -81 47 -92 47 -3 0 -5 -2 -5 -5z" 
fill="gold"/>
<path d="M575 1819 c-12 -18 4 -55 27 -65 15 -6 41 -6 74 1 l50 10 -31 16
c-29 14 -32 14 -31 0 1 -10 -9 -17 -27 -19 -51 -6 -78 40 -34 58 l22 9 -22 0
c-12 1 -25 -4 -28 -10z" fill="gold"/>
<path d="M783 1693 c-29 -2 -53 -7 -53 -11 0 -4 19 -6 43 -4 51 5 43 -8 -10
-15 -21 -3 -40 -7 -42 -9 -9 -8 47 -3 129 11 47 8 87 15 90 15 3 0 -2 5 -10
10 -15 10 -42 10 -147 3z"  fill="gold"/>
<path d="M655 1680 l-50 -7 58 -1 c32 -1 57 2 57 8 0 6 -3 9 -7 8 -5 0 -30 -4
-58 -8z" fill="gold"/>
<path d="M330 1659 l-55 -6 60 0 c33 -1 71 3 85 7 24 8 24 8 -5 7 -16 -1 -55
-5 -85 -8z"  fill="gold"/>
<path d="M517 1626 c-32 -6 -56 -14 -52 -17 3 -4 23 -3 43 2 20 4 60 11 87 14
28 4 52 9 54 11 8 8 -74 1 -132 -10z" fill="gold"/>
<path d="M790 1494 c-85 -63 -199 -146 -253 -185 -53 -39 -97 -73 -97 -75 0
-10 49 22 140 91 52 39 160 119 239 178 80 59 140 107 135 107 -5 -1 -79 -52
-164 -116z"  fill="gold"/>
<path d="M731 1583 c-23 -3 -30 -7 -22 -12 17 -11 -1 -46 -30 -62 -17 -9 -25
-8 -37 4 -20 21 -9 45 25 50 23 4 22 5 -6 3 -45 -1 -62 -27 -37 -55 30 -33 57
-26 104 29 24 28 42 49 40 48 -2 0 -18 -3 -37 -5z" fill="gold"/>

<!-- eye line -->
<path d="M1292 2452 c-34 -10 -92 -61 -92 -80 0 -11 7 -6 19 14 21 34 89 67
118 58 15 -5 16 -4 3 5 -17 12 -16 12 -48 3z" fill="#311F80"/>
<!-- eye -->
<path d="M1360 2439 c0 -6 7 -8 16 -5 8 3 14 2 12 -2 -2 -4 10 -20 26 -37 29
-30 27 -17 -3 19 -14 16 -14 18 -1 14 8 -2 26 -20 38 -39 49 -71 9 -174 -79
-200 -30 -10 -43 -8 -82 9 -51 22 -77 56 -88 110 -6 31 -7 27 -8 -29 -2 -117
44 -197 135 -235 43 -18 128 -18 162 0 32 17 84 71 102 106 21 39 16 129 -8
177 -26 50 -80 96 -131 112 -49 14 -91 14 -91 0z m171 -101 c22 -18 35 -56 38
-108 2 -37 -3 -53 -29 -89 -70 -96 -188 -102 -267 -13 -29 32 -22 42 25 31 85
-19 146 12 187 94 17 36 22 54 15 67 -15 28 5 39 31 18z s0 0 0 30 -100 0 -6 -250z" 
fill='#311F80' /> 
<!-- fill eye-->
<path d="M1510 2359 s0 -5 10 -10 135 -40 -5 -268z" fill='#311F80'/>
<path d="M1250 2175 s200 0, 0 -80, 250 0z" fill='#311F80'/>
<path d="M1280 2175 s600 10, 0 -90, 50 50z" fill='#311F80'/>
<path d="M1300 2155 s400 -130, 0 -80, 250 0z" fill='#311F80'/>
<path d="M1400 2200 c0 -190, 100 -190, 190 0z" fill='#311F80'/>
<path d="M1440 2210 c0 -10, 130 -130, 70 100z" fill='#311F80'/>
<!-- pupil -->
<!-- start: 1334 2340 -->
<path d="M 1225 2310
    a 72 72 0 1,1 144,0
    a 72 72 0 1,1 -144,0" fill="grey"/>
     <!-- M 25, 50
    a 25,25 0 1,1 50,0
    a 25,25 0 1,1 -50,0 -->
<!-- bottom right hair outline -->
<path d="M2395 1612 c-60 -172 -193 -414 -303 -552 -51 -65 -209 -223 -267
-268 -122 -95 -288 -192 -380 -222 l-38 -12 7 -97 c3 -53 6 -149 6 -215 l0
-118 73 7 c667 64 1179 600 1281 1343 9 62 16 135 16 163 l0 49 -184 0 -184
-1 -27 -77z" fill='#154660' />
<!-- bottom right dark blue-->
<path d="M2495 1640 m252 7 c12 -5 16 -16 13 -30 -3 -11
-7 -50 -9 -86 -5 -73 -20 -160 -42 -236 -8 -28 -16 -60 -18 -70 -21 -107 -163
-409 -219 -466 -7 -7 -28 -35 -47 -63 -60 -87 -302 -315 -335 -315 -4 0 -21
-11 -38 -23 -89 -65 -316 -151 -452 -171 -121 -17 -124 -17 -133 1 -5 10 -10
68 -10 129 l-1 110 92 33 c101 36 224 95 302 144 48 30 61 39 88 62 7 6 34 28
61 50 60 49 116 104 116 115 0 5 4 10 9 12 7 3 49 50 102 115 53 66 140 226
204 378 18 44 73 234 80 277 4 28 11 37 28 40 42 6 192 2 209 -6z" fill="#154660"/>
<!-- bottom right light blue -->
<path d="M2395 1612 m95 27 c0 -67 -82 -315 -149 -447 -103 -205 -313 -447 -486 -561
-127 -83 -282 -152 -393 -176 -31 -6 -32 -5 -28 19 10 57 18 64 122 116 166
82 271 158 418 299 92 90 171 188 248 306 49 77 148 270 148 290 0 7 8 23 19
36 10 13 22 44 26 68 12 72 75 114 75 50z" fill="#0EAAD0"/>
<!-- bottom beak -->
<!-- outline -->
<path d="M1045 1507 c-28 -30 -101 -98 -332 -308 -51 -46 -93 -87 -93 -91 0
-9 117 -109 175 -149 55 -38 98 -59 194 -95 82 -31 97 -34 210 -41 l94 -6 -8
94 c-4 52 -9 126 -11 164 -6 131 -13 260 -20 337 -6 73 -7 77 -26 67 -25 -14
-78 4 -108 36 -30 32 -39 31 -75 -8z m138 -56 c25 -5 33 -13 38 -40 4 -21 3
-34 -5 -37 -8 -3 -9 -34 -5 -107 4 -56 7 -115 8 -130 1 -19 5 -26 13 -21 7 5
8 3 3 -7 -10 -14 -7 -187 2 -203 4 -5 10 -1 14 10 6 13 8 7 6 -21 -2 -38 -4
-40 -37 -43 -20 -2 -76 6 -125 18 -50 11 -96 21 -104 22 -8 1 -16 10 -19 21
-3 11 -7 15 -12 8 -7 -12 -150 56 -150 71 0 13 28 9 33 -4 3 -7 6 -8 6 -3 1
15 -78 77 -92 72 -7 -3 0 -9 14 -15 31 -12 47 -42 23 -42 -9 0 -41 25 -72 55
l-57 55 76 73 c101 97 289 271 319 295 l25 20 34 -20 c18 -12 47 -24 64 -27z"  
fill="#EACA45"/>
<!-- line / meat of lemon-->
<path d="M930 1314 c-69 -63 -141 -132 -160 -152 l-35 -37 35 30 c89 77 298
275 290 275 -3 0 -62 -52 -130 -116z" fill="gold" />
<!-- seed bottom beak-->
<path d="M1046 1240 c-40 -45 -42 -52 -21 -70 30 -25 50 -8 56 50 3 30 5 56 4
58 -1 1 -19 -16 -39 -38z m24 -41 c0 -12 -7 -19 -20 -19 -22 0 -26 20 -8 38
15 15 28 6 28 -19z" fill="gold"/>
</g>
</svg>
